<svg xmlns="http://www.w3.org/2000/svg" xmlns:xlink="http://www.w3.org/1999/xlink" width="32" height="32" viewBox="0 0 32 32">
    <defs>
        <path id="x2hzep83na" d="M0 0L32 0 32 32 0 32z"/>
    </defs>
    <g fill="none" fill-rule="evenodd">
        <g>
            <g>
                <g>
                    <g>
                        <g>
                            <g transform="translate(-727 -396) translate(681 396) translate(46)">
                                <mask id="x2wtgrzwlb" fill="#fff">
                                    <use xlink:href="#x2hzep83na"/>
                                </mask>
                                <path fill="#FFF" d="M12.362 11.787l-1.212 1.2c-.254.256-.305.65-.125.963 1.85 3.204 4.043 5.697 7.113 7.05.3.134.653.07.887-.163l1.287-1.287 4.7 2.937c-.52 1.172-1.198 1.869-1.974 2.275-.9.471-1.997.56-3.25.3-2.506-.52-5.534-2.489-8-5.012-2.467-2.524-4.376-5.592-4.863-8.088-.243-1.248-.136-2.322.325-3.175.397-.733 1.07-1.362 2.2-1.812l2.912 4.812zM0 16c0 3.336 1.018 6.423 2.825 9.075.136.202.173.455.1.687L1.3 31.2l5.325-1.838c.23-.076.483-.044.687.088C9.807 31.068 12.792 32 16 32c8.848 0 16-7.152 16-16 0-8.848-7.152-16-16-16C7.156 0 0 7.152 0 16z" mask="url(#x2wtgrzwlb)"/>
                            </g>
                        </g>
                    </g>
                </g>
            </g>
        </g>
    </g>
</svg>
